<?xml version="1.0" standalone="no"?>
<!DOCTYPE svg PUBLIC "-//W3C//DTD SVG 20010904//EN"
 "http://www.w3.org/TR/2001/REC-SVG-20010904/DTD/svg10.dtd">
<svg version="1.0" xmlns="http://www.w3.org/2000/svg"
 width="560.000000pt" height="560.000000pt" viewBox="0 0 560.000000 560.000000"
 preserveAspectRatio="xMidYMid meet">
<metadata>
Created by potrace 1.11, written by Peter Selinger 2001-2013
</metadata>
<g transform="translate(0.000000,560.000000) scale(0.100000,-0.100000)"
fill="#000000" stroke="none">
<path d="M2200 5306 c-14 -8 -27 -13 -30 -12 -3 2 -28 -21 -56 -51 -28 -29
-49 -53 -46 -53 3 0 -5 -10 -17 -21 -29 -27 -85 -41 -102 -25 -9 8 -10 8 -5
-1 4 -8 2 -13 -6 -14 -57 -3 -134 -36 -171 -73 -15 -14 -27 -30 -28 -34 -2
-10 -8 -29 -15 -49 -4 -10 -8 -36 -9 -58 -4 -60 -12 -86 -36 -111 -22 -24 -91
-64 -110 -64 -24 0 -133 -110 -184 -185 -22 -33 -43 -61 -47 -63 -5 -2 -8 -10
-8 -18 0 -9 -4 -12 -10 -9 -6 3 -7 -1 -4 -9 4 -10 1 -16 -7 -16 -7 0 -9 -3 -6
-6 4 -4 -2 -19 -12 -33 -10 -14 -35 -63 -56 -108 -21 -46 -43 -83 -47 -83 -5
0 -7 -4 -4 -9 7 -10 -104 -127 -116 -123 -4 1 -8 -4 -8 -10 -1 -7 -25 -39 -55
-72 -30 -32 -55 -63 -55 -68 0 -5 -4 -6 -10 -3 -5 3 -10 -1 -10 -9 0 -9 -4
-16 -8 -16 -4 0 -16 -15 -27 -32 -10 -18 -29 -44 -41 -57 -13 -13 -31 -39 -41
-58 -9 -18 -21 -33 -25 -33 -5 0 -8 -4 -8 -10 0 -5 -15 -33 -34 -62 -18 -29
-48 -81 -66 -115 -19 -35 -38 -63 -43 -63 -4 0 -5 -5 -2 -10 4 -6 -1 -22 -9
-35 -9 -14 -13 -25 -9 -25 5 0 3 -4 -3 -8 -9 -5 -87 -191 -89 -212 -4 -32 -18
-60 -27 -54 -7 5 -8 3 -3 -5 6 -11 -6 -75 -22 -121 -9 -23 -14 -43 -18 -70 -1
-14 -4 -26 -5 -27 -4 -4 -5 -14 -14 -75 -4 -32 -10 -58 -14 -58 -11 0 -14 -91
-15 -365 -1 -238 4 -352 17 -385 3 -8 8 -31 11 -50 7 -43 10 -57 18 -95 4 -16
9 -39 12 -50 2 -11 9 -35 14 -54 6 -19 9 -37 6 -39 -3 -3 0 -11 7 -19 6 -7 8
-16 5 -20 -4 -3 -2 -11 3 -18 5 -6 11 -20 13 -31 2 -10 9 -29 15 -41 7 -13 11
-23 8 -23 -3 0 6 -24 19 -54 13 -30 21 -57 18 -60 -4 -3 -2 -6 3 -6 6 0 16
-17 23 -37 7 -21 26 -58 41 -83 15 -25 31 -55 35 -67 3 -13 11 -23 16 -23 5 0
8 -3 7 -7 -3 -9 101 -185 115 -194 5 -3 8 -10 8 -15 -1 -5 6 -17 14 -27 8 -9
15 -22 15 -27 0 -6 4 -10 8 -10 4 0 19 -18 32 -40 14 -22 31 -40 37 -40 7 0
12 -3 11 -7 -4 -12 50 -81 113 -145 31 -31 54 -59 51 -62 -3 -3 -1 -6 5 -6 6
0 29 -18 52 -40 22 -22 45 -40 50 -40 5 0 13 -9 16 -20 3 -11 13 -20 21 -20 7
0 19 -9 26 -20 7 -11 16 -20 21 -20 10 0 90 -61 95 -72 2 -5 10 -8 18 -8 8 0
14 -4 14 -8 0 -5 19 -19 41 -33 23 -13 58 -34 78 -47 20 -12 43 -25 51 -29 8
-4 17 -9 20 -13 7 -8 78 -41 86 -40 4 1 10 -3 13 -8 8 -13 158 -82 177 -82 8
0 14 -4 14 -10 0 -5 8 -10 18 -10 10 0 22 -3 25 -7 12 -11 140 -52 165 -53 12
0 22 -4 22 -8 0 -7 24 -12 68 -15 6 0 12 -3 12 -7 0 -3 17 -7 37 -8 21 -2 40
-6 43 -10 3 -4 14 -7 25 -7 11 0 34 -3 50 -8 65 -17 152 -21 435 -21 297 1
400 5 400 14 0 5 28 10 80 13 14 1 27 5 30 8 3 4 21 8 40 10 19 2 40 6 45 11
6 4 27 8 48 10 20 1 34 4 31 7 -4 4 49 22 103 34 7 2 16 6 19 10 4 4 18 7 31
7 13 0 23 5 23 10 0 6 8 10 18 10 10 0 26 6 37 14 11 7 28 12 38 10 9 -1 15 2
11 7 -3 5 0 9 6 9 17 0 238 108 245 120 4 6 10 8 15 5 4 -3 11 2 14 11 3 8 10
13 15 10 4 -3 16 3 26 14 10 11 24 20 32 20 7 0 13 5 13 10 0 6 5 10 11 10 11
0 82 50 87 63 2 4 8 7 14 7 5 0 16 6 23 12 8 7 29 24 46 38 17 14 42 35 55 48
13 13 24 21 24 18 0 -3 23 17 52 45 28 27 56 49 61 49 6 0 8 2 5 5 -3 3 20 31
51 63 31 31 68 73 81 92 13 19 32 42 42 51 10 9 18 21 18 26 0 5 14 22 30 38
17 16 30 33 30 38 0 8 16 30 61 85 5 6 6 12 2 12 -4 0 1 7 11 15 11 8 16 15
10 15 -5 0 0 7 10 15 11 8 16 15 12 15 -5 0 3 15 18 34 14 19 26 41 26 49 0 9
4 17 8 19 13 5 91 165 85 172 -4 3 -1 6 6 6 7 0 9 5 6 10 -3 6 -1 10 5 10 6 0
8 5 5 10 -3 6 -1 10 6 10 7 0 9 3 6 6 -3 4 -1 16 5 28 7 11 13 24 14 29 1 4 3
10 4 15 1 4 3 12 4 17 1 6 9 26 18 45 9 19 14 38 12 42 -3 5 -1 8 4 8 5 0 9 6
10 13 2 27 14 72 22 82 4 5 9 15 9 20 1 6 4 24 7 40 3 17 6 37 8 46 1 10 8 24
15 33 10 11 10 16 2 16 -7 0 -9 5 -5 12 4 7 9 31 10 54 1 23 5 48 9 54 4 7 8
33 9 59 1 25 4 51 8 56 7 12 3 525 -5 567 -10 54 -20 113 -23 133 -2 25 -12
68 -25 119 -6 22 -12 49 -13 60 -1 12 -7 30 -13 41 -6 11 -11 23 -12 28 -1 4
-2 9 -2 12 -1 3 -2 13 -3 23 -1 9 -7 27 -14 39 -7 12 -12 26 -12 32 0 5 -4 20
-9 33 -5 13 -9 25 -9 28 0 3 -7 18 -16 34 -8 16 -13 33 -10 38 3 4 1 8 -4 8
-9 0 -25 37 -23 53 1 4 -4 7 -11 7 -6 0 -9 3 -5 6 15 15 -214 408 -245 422 -5
2 -8 8 -8 13 0 11 -16 32 -47 61 -12 12 -20 24 -18 28 3 5 -2 11 -11 14 -18 7
-47 73 -39 86 4 6 1 10 -5 10 -6 0 -10 8 -7 18 2 9 -3 29 -10 44 -7 15 -12 31
-11 35 1 4 -8 30 -20 57 -12 26 -19 53 -15 59 3 6 1 7 -5 3 -7 -4 -14 3 -18
19 -3 14 -10 25 -16 25 -5 0 -6 5 -3 10 3 6 1 10 -4 10 -6 0 -11 4 -11 10 0 9
-19 36 -48 66 -7 8 -11 14 -8 14 8 0 -81 85 -117 113 -16 12 -40 32 -53 45
-13 12 -26 22 -29 22 -3 -1 -41 24 -84 55 -44 30 -84 55 -89 55 -6 0 -12 3
-14 8 -1 4 -30 27 -63 52 -77 58 -86 66 -77 75 4 5 2 5 -4 2 -6 -4 -19 2 -29
13 -10 11 -14 20 -9 20 5 0 -2 7 -14 16 -12 8 -22 22 -22 30 0 8 -4 14 -10 14
-5 0 -20 11 -33 24 -14 14 -28 22 -31 19 -3 -4 -6 -2 -6 3 0 5 -11 22 -25 38
-14 16 -25 32 -25 36 0 13 -91 99 -111 105 -10 4 -19 9 -19 13 0 7 -49 14 -95
15 -33 1 -108 -14 -128 -25 -26 -13 -57 -21 -94 -22 -17 -1 -29 -4 -27 -8 3
-4 -9 -2 -26 3 -16 6 -30 15 -30 20 0 5 -7 9 -15 9 -9 0 -18 7 -22 16 -7 20
-51 64 -63 64 -5 0 -14 8 -19 18 -6 9 -11 14 -11 9 0 -4 -12 -2 -27 6 -16 7
-39 12 -53 11 -50 -4 -105 -16 -117 -26 -7 -5 -18 -8 -25 -6 -7 3 -18 -1 -25
-8 -7 -7 -29 -11 -48 -9 -19 2 -37 0 -40 -5 -6 -9 -115 -10 -115 -1 0 3 -13 6
-29 7 -16 1 -45 8 -63 16 -134 63 -158 71 -213 74 -40 3 -68 -1 -85 -10z"/>
</g>
</svg>
